<svg xmlns="http://www.w3.org/2000/svg" xmlns:xlink="http://www.w3.org/1999/xlink" width="500" zoomAndPan="magnify" viewBox="0 0 375 374.999991" height="500" preserveAspectRatio="xMidYMid meet" version="1.0"><defs><g/><clipPath id="b13e1f0271"><path d="M 170.789062 149.09375 L 215.191406 149.09375 L 215.191406 193.496094 L 170.789062 193.496094 Z M 170.789062 149.09375 " clip-rule="nonzero"/></clipPath><clipPath id="81754d8724"><path d="M 192.992188 149.09375 C 180.730469 149.09375 170.789062 159.03125 170.789062 171.292969 C 170.789062 183.554688 180.730469 193.496094 192.992188 193.496094 C 205.253906 193.496094 215.191406 183.554688 215.191406 171.292969 C 215.191406 159.03125 205.253906 149.09375 192.992188 149.09375 Z M 192.992188 149.09375 " clip-rule="nonzero"/></clipPath><clipPath id="38dfc4199b"><path d="M 179.550781 157.851562 L 206.433594 157.851562 L 206.433594 184.734375 L 179.550781 184.734375 Z M 179.550781 157.851562 " clip-rule="nonzero"/></clipPath><clipPath id="a00b4a413f"><path d="M 192.992188 157.851562 C 185.566406 157.851562 179.550781 163.871094 179.550781 171.292969 C 179.550781 178.71875 185.566406 184.734375 192.992188 184.734375 C 200.414062 184.734375 206.433594 178.71875 206.433594 171.292969 C 206.433594 163.871094 200.414062 157.851562 192.992188 157.851562 Z M 192.992188 157.851562 " clip-rule="nonzero"/></clipPath></defs><g fill="#ffffff" fill-opacity="1"><g transform="translate(174.932058, 218.009313)"><g><path d="M 29.332031 -88.933594 L 32.546875 -93.753906 L 6.695312 -93.753906 L 9.910156 -88.933594 L 9.910156 -4.820312 L 6.695312 0 L 32.546875 0 L 29.332031 -4.820312 L 29.332031 -38.839844 L 50.359375 -38.839844 L 50.359375 -4.820312 L 47.144531 0 L 72.996094 0 L 69.78125 -4.820312 L 69.78125 -88.933594 L 72.996094 -93.753906 L 47.144531 -93.753906 L 50.359375 -88.933594 L 50.359375 -54.914062 L 29.332031 -54.914062 Z M 29.332031 -88.933594 "/></g></g></g><g fill="#ffffff" fill-opacity="1"><g transform="translate(89.812785, 249.245638)"><g><path d="M 15.488281 -12.726562 L 15.488281 -11.871094 C 15.488281 -11.632812 15.507812 -11.351562 15.507812 -11.035156 C 15.507812 -10.714844 15.507812 -10.398438 15.527344 -10.058594 C 15.566406 -8.332031 15.585938 -6.601562 15.585938 -4.871094 C 15.585938 -4.59375 15.566406 -4.316406 15.527344 -4.035156 C 15.488281 -3.757812 15.390625 -3.5 15.25 -3.28125 C 15.109375 -3.042969 14.910156 -2.863281 14.652344 -2.722656 C 14.375 -2.585938 14.015625 -2.523438 13.558594 -2.523438 C 13.242188 -2.523438 12.964844 -2.566406 12.726562 -2.644531 C 12.484375 -2.722656 12.265625 -2.84375 12.109375 -3.003906 C 11.929688 -3.140625 11.789062 -3.300781 11.691406 -3.5 C 11.589844 -3.679688 11.511719 -3.878906 11.453125 -4.074219 C 11.292969 -4.511719 11.253906 -5.03125 11.292969 -5.605469 L 11.292969 -7.375 C 11.273438 -7.894531 11.273438 -8.449219 11.273438 -9.046875 L 11.273438 -11.054688 C 11.273438 -11.132812 11.273438 -11.214844 11.292969 -11.292969 L 11.292969 -12.882812 C 11.292969 -13.042969 11.273438 -13.183594 11.253906 -13.320312 C 11.214844 -13.421875 11.175781 -13.519531 11.113281 -13.601562 C 11.054688 -13.679688 10.957031 -13.738281 10.835938 -13.738281 L 10.796875 -13.738281 C 10.777344 -13.738281 10.757812 -13.757812 10.714844 -13.757812 L 10.457031 -13.757812 C 10.378906 -13.738281 10.320312 -13.738281 10.238281 -13.738281 L 9.703125 -13.738281 C 9.625 -13.738281 9.542969 -13.738281 9.484375 -13.757812 L 9.226562 -13.757812 C 9.1875 -13.757812 9.144531 -13.738281 9.125 -13.738281 L 9.105469 -13.738281 C 8.988281 -13.738281 8.886719 -13.679688 8.828125 -13.601562 C 8.75 -13.519531 8.707031 -13.421875 8.6875 -13.320312 C 8.648438 -13.183594 8.648438 -13.042969 8.648438 -12.882812 L 8.648438 -11.292969 C 8.648438 -11.214844 8.648438 -11.132812 8.648438 -11.054688 C 8.648438 -10.976562 8.667969 -10.875 8.667969 -10.777344 C 8.667969 -10.21875 8.648438 -9.644531 8.648438 -9.046875 C 8.648438 -8.449219 8.648438 -7.894531 8.648438 -7.375 L 8.648438 -5.605469 C 8.6875 -5.03125 8.628906 -4.511719 8.488281 -4.074219 C 8.429688 -3.878906 8.351562 -3.679688 8.25 -3.5 C 8.132812 -3.300781 7.992188 -3.140625 7.832031 -3.003906 C 7.675781 -2.84375 7.476562 -2.722656 7.238281 -2.644531 C 7 -2.566406 6.699219 -2.523438 6.382812 -2.523438 C 5.925781 -2.523438 5.566406 -2.585938 5.289062 -2.722656 C 5.011719 -2.863281 4.792969 -3.042969 4.652344 -3.28125 C 4.511719 -3.5 4.414062 -3.757812 4.375 -4.035156 C 4.335938 -4.316406 4.316406 -4.59375 4.316406 -4.871094 C 4.316406 -5.785156 4.316406 -6.660156 4.335938 -7.515625 C 4.355469 -8.351562 4.375 -9.207031 4.414062 -10.058594 C 4.414062 -10.398438 4.433594 -10.714844 4.433594 -11.035156 C 4.433594 -11.351562 4.453125 -11.632812 4.453125 -11.871094 L 4.453125 -12.726562 C 4.453125 -12.785156 4.433594 -12.863281 4.433594 -12.984375 C 4.433594 -13.101562 4.414062 -13.203125 4.375 -13.320312 C 4.335938 -13.421875 4.273438 -13.519531 4.195312 -13.601562 C 4.117188 -13.679688 3.996094 -13.71875 3.855469 -13.71875 L 0.816406 -13.71875 C 0.65625 -13.71875 0.535156 -13.679688 0.457031 -13.640625 C 0.378906 -13.578125 0.339844 -13.460938 0.339844 -13.28125 L 0.339844 -13.0625 C 0.339844 -12.964844 0.316406 -12.863281 0.316406 -12.746094 C 0.316406 -12.625 0.296875 -12.484375 0.296875 -12.367188 C 0.296875 -12.246094 0.296875 -12.128906 0.296875 -12.046875 L 0.296875 -11.851562 C 0.277344 -11.730469 0.277344 -11.613281 0.316406 -11.453125 C 0.339844 -11.292969 0.457031 -11.234375 0.65625 -11.234375 L 1.648438 -11.253906 C 1.648438 -11.195312 1.628906 -11.015625 1.628906 -10.738281 C 1.628906 -10.4375 1.609375 -10.082031 1.609375 -9.664062 C 1.609375 -9.226562 1.589844 -8.769531 1.589844 -8.25 C 1.570312 -7.734375 1.550781 -7.238281 1.550781 -6.761719 C 1.550781 -6.28125 1.550781 -5.84375 1.550781 -5.449219 L 1.550781 -4.511719 C 1.570312 -3.660156 1.75 -2.902344 2.085938 -2.265625 C 2.265625 -1.867188 2.523438 -1.511719 2.863281 -1.171875 C 3.179688 -0.835938 3.617188 -0.558594 4.136719 -0.339844 C 4.652344 -0.0976562 5.308594 0 6.085938 0 C 6.9375 0 7.714844 -0.0976562 8.410156 -0.339844 C 9.085938 -0.578125 9.601562 -0.875 9.960938 -1.253906 C 10.300781 -0.875 10.757812 -0.578125 11.3125 -0.339844 C 11.871094 -0.0976562 12.585938 0 13.460938 0 C 14.097656 0 14.652344 -0.0585938 15.128906 -0.199219 C 15.609375 -0.316406 16.023438 -0.496094 16.382812 -0.714844 C 16.742188 -0.914062 17.039062 -1.152344 17.277344 -1.429688 C 17.515625 -1.710938 17.695312 -1.988281 17.855469 -2.265625 C 18.210938 -2.902344 18.390625 -3.660156 18.429688 -4.511719 L 18.410156 -12.726562 C 18.410156 -12.785156 18.390625 -12.863281 18.390625 -12.984375 C 18.390625 -13.101562 18.371094 -13.203125 18.332031 -13.320312 C 18.292969 -13.421875 18.230469 -13.519531 18.152344 -13.601562 C 18.074219 -13.679688 17.953125 -13.71875 17.816406 -13.71875 L 16.085938 -13.71875 C 15.925781 -13.71875 15.828125 -13.679688 15.746094 -13.601562 C 15.667969 -13.519531 15.609375 -13.421875 15.566406 -13.320312 C 15.527344 -13.203125 15.488281 -13.101562 15.488281 -12.984375 C 15.488281 -12.863281 15.488281 -12.785156 15.488281 -12.726562 Z M 15.488281 -12.726562 "/></g></g></g><g fill="#ffffff" fill-opacity="1"><g transform="translate(112.49211, 249.245638)"><g><path d="M 4.035156 -11.472656 L 9.226562 -11.472656 C 9.246094 -11.453125 9.285156 -11.453125 9.324219 -11.453125 C 9.34375 -11.453125 9.382812 -11.433594 9.425781 -11.433594 C 9.464844 -11.433594 9.523438 -11.433594 9.5625 -11.433594 C 9.683594 -11.433594 9.78125 -11.453125 9.882812 -11.492188 C 9.980469 -11.53125 10.039062 -11.632812 10.039062 -11.789062 C 10.039062 -11.929688 10.039062 -12.089844 10.039062 -12.246094 C 10.039062 -12.40625 10.058594 -12.585938 10.082031 -12.746094 C 10.082031 -12.902344 10.082031 -13.082031 10.101562 -13.28125 C 10.082031 -13.382812 10.058594 -13.480469 10.019531 -13.578125 C 9.980469 -13.660156 9.941406 -13.71875 9.863281 -13.777344 C 9.78125 -13.839844 9.683594 -13.878906 9.5625 -13.878906 L 2.109375 -13.796875 C 1.910156 -13.796875 1.730469 -13.777344 1.550781 -13.757812 C 1.371094 -13.738281 1.210938 -13.699219 1.074219 -13.640625 C 0.933594 -13.558594 0.835938 -13.460938 0.753906 -13.320312 C 0.675781 -13.164062 0.636719 -12.984375 0.636719 -12.746094 C 0.636719 -12.527344 0.636719 -12.226562 0.636719 -11.832031 C 0.636719 -11.433594 0.65625 -11.015625 0.675781 -10.558594 C 0.675781 -10.082031 0.695312 -9.625 0.714844 -9.144531 C 0.714844 -8.667969 0.734375 -8.230469 0.753906 -7.832031 C 0.753906 -7.4375 0.777344 -7.097656 0.777344 -6.859375 L 0.796875 -6.480469 L 0.796875 -1.847656 C 0.796875 -1.589844 0.777344 -1.472656 0.777344 -1.472656 C 0.753906 -1.472656 0.734375 -1.390625 0.734375 -1.234375 C 0.734375 -1.074219 0.753906 -0.914062 0.796875 -0.734375 C 0.835938 -0.558594 0.914062 -0.398438 1.035156 -0.238281 C 1.152344 -0.078125 1.3125 -0.0195312 1.550781 -0.0195312 L 9.1875 -0.0195312 C 9.207031 0 9.246094 0 9.304688 0 C 9.382812 0 9.464844 -0.0195312 9.5625 -0.0585938 C 9.664062 -0.0976562 9.722656 -0.21875 9.722656 -0.417969 C 9.722656 -0.558594 9.722656 -0.695312 9.722656 -0.835938 C 9.722656 -0.972656 9.742188 -1.113281 9.761719 -1.234375 C 9.761719 -1.371094 9.78125 -1.511719 9.800781 -1.648438 C 9.820312 -1.769531 9.820312 -1.867188 9.820312 -1.96875 C 9.78125 -2.046875 9.742188 -2.109375 9.664062 -2.1875 C 9.582031 -2.246094 9.464844 -2.285156 9.285156 -2.285156 L 8.628906 -2.285156 C 8.3125 -2.285156 7.972656 -2.265625 7.574219 -2.265625 C 7.175781 -2.265625 6.761719 -2.246094 6.324219 -2.246094 C 5.886719 -2.246094 5.488281 -2.226562 5.128906 -2.226562 C 4.773438 -2.226562 4.472656 -2.226562 4.234375 -2.226562 L 3.835938 -2.226562 C 3.816406 -2.207031 3.777344 -2.207031 3.738281 -2.207031 C 3.679688 -2.207031 3.617188 -2.226562 3.578125 -2.265625 C 3.519531 -2.304688 3.5 -2.386719 3.5 -2.546875 L 3.519531 -5.1875 L 3.519531 -5.289062 C 3.519531 -5.347656 3.519531 -5.40625 3.539062 -5.488281 C 3.558594 -5.546875 3.597656 -5.605469 3.636719 -5.667969 C 3.679688 -5.726562 3.738281 -5.765625 3.835938 -5.765625 C 3.878906 -5.765625 4.035156 -5.765625 4.316406 -5.765625 C 4.574219 -5.765625 4.890625 -5.785156 5.25 -5.785156 C 5.605469 -5.785156 6.003906 -5.804688 6.402344 -5.824219 C 6.800781 -5.824219 7.175781 -5.84375 7.535156 -5.84375 C 7.875 -5.84375 8.152344 -5.867188 8.390625 -5.867188 L 8.75 -5.886719 L 8.789062 -5.886719 C 8.789062 -5.867188 8.828125 -5.867188 8.886719 -5.867188 C 8.988281 -5.867188 9.085938 -5.886719 9.207031 -5.925781 C 9.324219 -5.964844 9.382812 -6.085938 9.382812 -6.261719 C 9.382812 -6.382812 9.382812 -6.542969 9.382812 -6.738281 C 9.382812 -6.9375 9.40625 -7.117188 9.425781 -7.296875 C 9.425781 -7.476562 9.445312 -7.636719 9.445312 -7.773438 L 9.464844 -7.992188 L 9.464844 -8.074219 C 9.464844 -8.132812 9.464844 -8.191406 9.445312 -8.25 C 9.425781 -8.3125 9.382812 -8.371094 9.34375 -8.429688 C 9.285156 -8.46875 9.207031 -8.507812 9.085938 -8.507812 C 9.027344 -8.507812 8.90625 -8.488281 8.726562 -8.488281 C 8.550781 -8.488281 8.332031 -8.46875 8.074219 -8.46875 C 7.8125 -8.449219 7.535156 -8.429688 7.238281 -8.429688 C 6.917969 -8.410156 6.621094 -8.390625 6.324219 -8.371094 C 5.585938 -8.332031 4.773438 -8.269531 3.898438 -8.230469 C 3.816406 -8.230469 3.738281 -8.230469 3.679688 -8.269531 C 3.617188 -8.289062 3.558594 -8.332031 3.519531 -8.371094 C 3.480469 -8.410156 3.460938 -8.488281 3.460938 -8.589844 C 3.460938 -8.667969 3.460938 -8.847656 3.480469 -9.105469 C 3.480469 -9.34375 3.5 -9.601562 3.519531 -9.882812 C 3.539062 -10.160156 3.558594 -10.398438 3.578125 -10.597656 C 3.578125 -10.796875 3.578125 -10.894531 3.578125 -10.894531 C 3.558594 -10.875 3.539062 -10.894531 3.539062 -10.957031 C 3.539062 -11.015625 3.539062 -11.074219 3.578125 -11.152344 C 3.597656 -11.234375 3.636719 -11.292969 3.71875 -11.371094 C 3.777344 -11.433594 3.878906 -11.472656 4.035156 -11.472656 Z M 4.035156 -11.472656 "/></g></g></g><g fill="#ffffff" fill-opacity="1"><g transform="translate(126.545693, 249.245638)"><g><path d="M 12.585938 -2.882812 C 12.703125 -3.519531 12.765625 -4.054688 12.726562 -4.535156 C 12.683594 -5.011719 12.605469 -5.40625 12.464844 -5.746094 C 12.328125 -6.0625 12.167969 -6.34375 11.96875 -6.542969 C 11.769531 -6.738281 11.570312 -6.917969 11.394531 -7.039062 C 11.214844 -7.15625 11.054688 -7.238281 10.933594 -7.277344 L 10.738281 -7.335938 L 10.976562 -7.515625 C 11.132812 -7.636719 11.332031 -7.8125 11.53125 -8.09375 C 11.730469 -8.351562 11.910156 -8.6875 12.070312 -9.125 C 12.226562 -9.542969 12.328125 -10.058594 12.328125 -10.695312 C 12.328125 -11.3125 12.128906 -11.832031 11.769531 -12.246094 C 11.414062 -12.644531 10.957031 -12.984375 10.398438 -13.222656 C 9.84375 -13.460938 9.226562 -13.621094 8.570312 -13.71875 C 7.914062 -13.816406 7.296875 -13.878906 6.71875 -13.878906 C 6.125 -13.878906 5.667969 -13.859375 5.308594 -13.859375 C 4.949219 -13.859375 4.691406 -13.839844 4.492188 -13.839844 C 4.292969 -13.839844 4.175781 -13.816406 4.097656 -13.816406 C 4.015625 -13.796875 3.976562 -13.796875 3.957031 -13.796875 C 3.917969 -13.796875 3.777344 -13.777344 3.539062 -13.757812 C 3.28125 -13.738281 3.003906 -13.71875 2.722656 -13.71875 C 2.425781 -13.699219 2.148438 -13.679688 1.910156 -13.679688 C 1.648438 -13.660156 1.511719 -13.660156 1.472656 -13.660156 C 1.429688 -13.660156 1.351562 -13.640625 1.234375 -13.640625 C 1.113281 -13.640625 0.992188 -13.621094 0.875 -13.601562 C 0.753906 -13.578125 0.636719 -13.558594 0.535156 -13.539062 C 0.417969 -13.5 0.359375 -13.460938 0.359375 -13.421875 C 0.339844 -13.359375 0.316406 -13.261719 0.316406 -13.101562 C 0.316406 -12.945312 0.316406 -12.765625 0.339844 -12.585938 C 0.339844 -12.40625 0.359375 -12.246094 0.378906 -12.089844 C 0.398438 -11.929688 0.4375 -11.808594 0.476562 -11.769531 C 0.578125 -11.613281 0.695312 -11.550781 0.855469 -11.550781 C 0.875 -11.550781 0.894531 -11.550781 0.914062 -11.550781 C 0.933594 -11.550781 0.953125 -11.570312 0.992188 -11.570312 L 2.167969 -11.769531 C 2.1875 -11.769531 2.207031 -11.75 2.226562 -11.730469 C 2.246094 -11.691406 2.265625 -11.652344 2.265625 -11.589844 C 2.265625 -11.511719 2.265625 -11.414062 2.265625 -11.273438 C 2.246094 -11.132812 2.246094 -10.835938 2.265625 -10.398438 C 2.285156 -9.941406 2.304688 -9.445312 2.328125 -8.925781 C 2.347656 -8.390625 2.367188 -7.894531 2.386719 -7.417969 C 2.386719 -6.9375 2.386719 -6.601562 2.386719 -6.402344 C 2.367188 -6.261719 2.347656 -6.042969 2.347656 -5.746094 C 2.347656 -5.429688 2.328125 -5.089844 2.328125 -4.691406 C 2.304688 -4.292969 2.285156 -3.898438 2.285156 -3.480469 C 2.285156 -3.042969 2.265625 -2.664062 2.265625 -2.328125 C 2.265625 -1.96875 2.265625 -1.691406 2.265625 -1.472656 L 2.265625 -1.113281 C 2.265625 -1.09375 2.246094 -1.035156 2.246094 -0.933594 C 2.226562 -0.816406 2.246094 -0.695312 2.304688 -0.578125 C 2.347656 -0.457031 2.445312 -0.339844 2.605469 -0.238281 C 2.761719 -0.121094 3.003906 -0.078125 3.320312 -0.078125 C 3.539062 -0.078125 3.917969 -0.0585938 4.472656 -0.0195312 C 5.011719 0.0195312 5.625 0.0390625 6.304688 0.0390625 C 6.9375 0.0390625 7.59375 0.0195312 8.269531 -0.0585938 C 8.945312 -0.140625 9.601562 -0.277344 10.199219 -0.476562 C 10.796875 -0.675781 11.292969 -0.972656 11.730469 -1.371094 C 12.167969 -1.75 12.445312 -2.246094 12.585938 -2.882812 Z M 6.203125 -6.125 L 7.394531 -6.125 C 7.734375 -6.125 8.050781 -6.0625 8.371094 -5.984375 C 8.667969 -5.886719 8.925781 -5.746094 9.164062 -5.566406 C 9.40625 -5.367188 9.582031 -5.148438 9.722656 -4.871094 C 9.863281 -4.59375 9.941406 -4.273438 9.941406 -3.917969 C 9.941406 -3.480469 9.78125 -3.140625 9.464844 -2.902344 C 9.144531 -2.664062 8.789062 -2.484375 8.351562 -2.367188 C 7.914062 -2.246094 7.476562 -2.167969 7.019531 -2.128906 C 6.542969 -2.085938 6.164062 -2.085938 5.867188 -2.085938 L 5.367188 -2.085938 C 5.210938 -2.085938 5.070312 -2.109375 4.992188 -2.1875 C 4.910156 -2.246094 4.851562 -2.328125 4.8125 -2.40625 C 4.75 -2.484375 4.730469 -2.605469 4.730469 -2.722656 C 4.710938 -3.082031 4.710938 -3.417969 4.710938 -3.757812 C 4.691406 -4.035156 4.691406 -4.316406 4.691406 -4.613281 C 4.691406 -4.910156 4.691406 -5.167969 4.710938 -5.367188 C 4.710938 -5.566406 4.75 -5.707031 4.832031 -5.804688 C 4.910156 -5.90625 4.992188 -5.984375 5.089844 -6.023438 C 5.167969 -6.0625 5.25 -6.085938 5.328125 -6.085938 C 5.386719 -6.085938 5.40625 -6.105469 5.40625 -6.105469 C 5.386719 -6.105469 5.46875 -6.125 5.625 -6.125 Z M 6.957031 -8.332031 C 6.5625 -8.332031 6.222656 -8.332031 5.90625 -8.371094 C 5.585938 -8.410156 5.367188 -8.429688 5.269531 -8.429688 C 5.128906 -8.429688 5.03125 -8.449219 4.949219 -8.507812 C 4.871094 -8.570312 4.832031 -8.628906 4.792969 -8.707031 C 4.75 -8.769531 4.75 -8.828125 4.75 -8.90625 L 4.75 -9.007812 L 4.730469 -9.285156 C 4.730469 -9.484375 4.710938 -9.703125 4.710938 -9.960938 C 4.710938 -10.199219 4.710938 -10.457031 4.710938 -10.714844 C 4.710938 -10.976562 4.710938 -11.175781 4.730469 -11.332031 C 4.730469 -11.472656 4.773438 -11.570312 4.8125 -11.652344 C 4.851562 -11.710938 4.910156 -11.75 4.96875 -11.789062 C 5.03125 -11.808594 5.089844 -11.832031 5.128906 -11.832031 C 5.167969 -11.832031 5.210938 -11.832031 5.210938 -11.851562 C 5.210938 -11.851562 5.269531 -11.871094 5.386719 -11.871094 C 5.507812 -11.871094 5.648438 -11.890625 5.84375 -11.890625 C 6.042969 -11.890625 6.242188 -11.910156 6.460938 -11.910156 C 6.679688 -11.910156 6.898438 -11.929688 7.097656 -11.929688 L 7.554688 -11.929688 C 7.734375 -11.929688 7.972656 -11.910156 8.25 -11.871094 C 8.53125 -11.832031 8.789062 -11.730469 9.046875 -11.589844 C 9.304688 -11.433594 9.523438 -11.214844 9.683594 -10.933594 C 9.84375 -10.65625 9.882812 -10.257812 9.84375 -9.78125 C 9.800781 -9.464844 9.683594 -9.226562 9.503906 -9.046875 C 9.304688 -8.847656 9.085938 -8.707031 8.808594 -8.609375 C 8.53125 -8.488281 8.230469 -8.429688 7.914062 -8.390625 C 7.59375 -8.351562 7.277344 -8.332031 6.957031 -8.332031 Z M 6.957031 -8.332031 "/></g></g></g><g fill="#ffffff" fill-opacity="1"><g transform="translate(143.540772, 249.245638)"><g/></g></g><g fill="#ffffff" fill-opacity="1"><g transform="translate(151.373485, 249.245638)"><g><path d="M 4.691406 -13.917969 C 4.414062 -13.917969 4.195312 -13.898438 4.035156 -13.898438 C 3.878906 -13.898438 3.738281 -13.878906 3.660156 -13.878906 C 3.578125 -13.878906 3.519531 -13.859375 3.480469 -13.859375 C 3.441406 -13.839844 3.417969 -13.839844 3.398438 -13.839844 C 3.359375 -13.839844 3.160156 -13.816406 2.84375 -13.816406 C 2.503906 -13.796875 2.148438 -13.777344 1.75 -13.777344 C 1.351562 -13.757812 1.015625 -13.738281 0.695312 -13.738281 C 0.378906 -13.738281 0.199219 -13.738281 0.199219 -13.738281 C 0.160156 -13.738281 0.121094 -13.699219 0.0390625 -13.640625 C -0.0390625 -13.578125 -0.0976562 -13.480469 -0.121094 -13.320312 C -0.160156 -13.242188 -0.160156 -13.101562 -0.160156 -12.945312 C -0.160156 -12.765625 -0.179688 -12.585938 -0.179688 -12.40625 L -0.179688 -11.730469 C -0.179688 -11.652344 -0.179688 -11.570312 -0.160156 -11.511719 C -0.140625 -11.433594 -0.0976562 -11.371094 -0.0585938 -11.332031 C -0.0195312 -11.292969 0.0390625 -11.273438 0.140625 -11.273438 C 0.21875 -11.273438 0.339844 -11.273438 0.457031 -11.273438 C 0.578125 -11.273438 0.695312 -11.292969 0.816406 -11.292969 C 0.933594 -11.292969 1.074219 -11.292969 1.210938 -11.3125 C 1.210938 -11.3125 1.234375 -11.3125 1.234375 -11.332031 L 1.3125 -11.332031 C 1.351562 -11.332031 1.410156 -11.3125 1.472656 -11.273438 C 1.511719 -11.234375 1.550781 -11.152344 1.550781 -11.035156 L 1.550781 -9.265625 C 1.550781 -8.789062 1.53125 -8.230469 1.53125 -7.636719 C 1.53125 -7.039062 1.53125 -6.421875 1.53125 -5.804688 L 1.53125 -0.714844 C 1.53125 -0.617188 1.570312 -0.515625 1.609375 -0.417969 C 1.648438 -0.316406 1.710938 -0.21875 1.789062 -0.140625 C 1.867188 -0.0585938 1.988281 -0.0195312 2.148438 -0.0195312 L 8.390625 0 L 8.726562 -0.0195312 C 8.96875 -0.0195312 9.246094 -0.078125 9.601562 -0.179688 C 9.960938 -0.257812 10.339844 -0.417969 10.777344 -0.636719 C 11.195312 -0.855469 11.613281 -1.171875 12.007812 -1.589844 C 12.40625 -1.988281 12.746094 -2.523438 13.0625 -3.160156 C 13.359375 -3.796875 13.578125 -4.574219 13.699219 -5.527344 C 13.878906 -6.9375 13.796875 -8.152344 13.460938 -9.1875 C 13.101562 -10.21875 12.605469 -11.074219 11.96875 -11.75 C 11.3125 -12.425781 10.558594 -12.945312 9.703125 -13.28125 C 8.828125 -13.621094 7.972656 -13.816406 7.117188 -13.859375 C 6.542969 -13.878906 6.0625 -13.898438 5.667969 -13.898438 C 5.269531 -13.898438 4.949219 -13.917969 4.691406 -13.917969 Z M 6.582031 -2.128906 C 6.0625 -2.128906 5.625 -2.148438 5.230469 -2.207031 C 4.832031 -2.265625 4.574219 -2.304688 4.453125 -2.304688 C 4.253906 -2.304688 4.136719 -2.347656 4.054688 -2.425781 C 3.976562 -2.503906 3.917969 -2.605469 3.898438 -2.722656 C 3.878906 -2.84375 3.878906 -2.941406 3.898438 -3.042969 L 3.9375 -3.179688 L 3.9375 -3.699219 C 3.9375 -4.035156 3.957031 -4.472656 3.976562 -4.992188 C 3.976562 -5.507812 3.996094 -6.0625 3.996094 -6.679688 C 3.996094 -7.296875 4.015625 -7.894531 4.035156 -8.449219 C 4.035156 -9.007812 4.054688 -9.484375 4.054688 -9.921875 C 4.054688 -10.339844 4.074219 -10.617188 4.074219 -10.738281 C 4.074219 -10.914062 4.097656 -11.054688 4.175781 -11.152344 C 4.253906 -11.253906 4.335938 -11.332031 4.433594 -11.371094 C 4.511719 -11.414062 4.59375 -11.453125 4.671875 -11.472656 C 4.75 -11.492188 4.792969 -11.511719 4.792969 -11.53125 C 4.792969 -11.550781 4.929688 -11.570312 5.210938 -11.589844 C 5.46875 -11.613281 5.785156 -11.632812 6.183594 -11.632812 C 6.441406 -11.632812 6.699219 -11.613281 6.980469 -11.613281 C 7.238281 -11.589844 7.496094 -11.570312 7.734375 -11.53125 C 8.011719 -11.472656 8.390625 -11.351562 8.847656 -11.175781 C 9.285156 -10.996094 9.703125 -10.695312 10.101562 -10.277344 C 10.476562 -9.84375 10.777344 -9.265625 10.996094 -8.53125 C 11.214844 -7.773438 11.253906 -6.820312 11.09375 -5.667969 C 10.976562 -4.910156 10.777344 -4.316406 10.457031 -3.855469 C 10.140625 -3.378906 9.78125 -3.023438 9.34375 -2.761719 C 8.90625 -2.503906 8.449219 -2.328125 7.972656 -2.246094 C 7.496094 -2.167969 7.019531 -2.128906 6.582031 -2.128906 Z M 6.582031 -2.128906 "/></g></g></g><g fill="#ffffff" fill-opacity="1"><g transform="translate(169.044318, 249.245638)"><g><path d="M 4.035156 -11.472656 L 9.226562 -11.472656 C 9.246094 -11.453125 9.285156 -11.453125 9.324219 -11.453125 C 9.34375 -11.453125 9.382812 -11.433594 9.425781 -11.433594 C 9.464844 -11.433594 9.523438 -11.433594 9.5625 -11.433594 C 9.683594 -11.433594 9.78125 -11.453125 9.882812 -11.492188 C 9.980469 -11.53125 10.039062 -11.632812 10.039062 -11.789062 C 10.039062 -11.929688 10.039062 -12.089844 10.039062 -12.246094 C 10.039062 -12.40625 10.058594 -12.585938 10.082031 -12.746094 C 10.082031 -12.902344 10.082031 -13.082031 10.101562 -13.28125 C 10.082031 -13.382812 10.058594 -13.480469 10.019531 -13.578125 C 9.980469 -13.660156 9.941406 -13.71875 9.863281 -13.777344 C 9.78125 -13.839844 9.683594 -13.878906 9.5625 -13.878906 L 2.109375 -13.796875 C 1.910156 -13.796875 1.730469 -13.777344 1.550781 -13.757812 C 1.371094 -13.738281 1.210938 -13.699219 1.074219 -13.640625 C 0.933594 -13.558594 0.835938 -13.460938 0.753906 -13.320312 C 0.675781 -13.164062 0.636719 -12.984375 0.636719 -12.746094 C 0.636719 -12.527344 0.636719 -12.226562 0.636719 -11.832031 C 0.636719 -11.433594 0.65625 -11.015625 0.675781 -10.558594 C 0.675781 -10.082031 0.695312 -9.625 0.714844 -9.144531 C 0.714844 -8.667969 0.734375 -8.230469 0.753906 -7.832031 C 0.753906 -7.4375 0.777344 -7.097656 0.777344 -6.859375 L 0.796875 -6.480469 L 0.796875 -1.847656 C 0.796875 -1.589844 0.777344 -1.472656 0.777344 -1.472656 C 0.753906 -1.472656 0.734375 -1.390625 0.734375 -1.234375 C 0.734375 -1.074219 0.753906 -0.914062 0.796875 -0.734375 C 0.835938 -0.558594 0.914062 -0.398438 1.035156 -0.238281 C 1.152344 -0.078125 1.3125 -0.0195312 1.550781 -0.0195312 L 9.1875 -0.0195312 C 9.207031 0 9.246094 0 9.304688 0 C 9.382812 0 9.464844 -0.0195312 9.5625 -0.0585938 C 9.664062 -0.0976562 9.722656 -0.21875 9.722656 -0.417969 C 9.722656 -0.558594 9.722656 -0.695312 9.722656 -0.835938 C 9.722656 -0.972656 9.742188 -1.113281 9.761719 -1.234375 C 9.761719 -1.371094 9.78125 -1.511719 9.800781 -1.648438 C 9.820312 -1.769531 9.820312 -1.867188 9.820312 -1.96875 C 9.78125 -2.046875 9.742188 -2.109375 9.664062 -2.1875 C 9.582031 -2.246094 9.464844 -2.285156 9.285156 -2.285156 L 8.628906 -2.285156 C 8.3125 -2.285156 7.972656 -2.265625 7.574219 -2.265625 C 7.175781 -2.265625 6.761719 -2.246094 6.324219 -2.246094 C 5.886719 -2.246094 5.488281 -2.226562 5.128906 -2.226562 C 4.773438 -2.226562 4.472656 -2.226562 4.234375 -2.226562 L 3.835938 -2.226562 C 3.816406 -2.207031 3.777344 -2.207031 3.738281 -2.207031 C 3.679688 -2.207031 3.617188 -2.226562 3.578125 -2.265625 C 3.519531 -2.304688 3.5 -2.386719 3.5 -2.546875 L 3.519531 -5.1875 L 3.519531 -5.289062 C 3.519531 -5.347656 3.519531 -5.40625 3.539062 -5.488281 C 3.558594 -5.546875 3.597656 -5.605469 3.636719 -5.667969 C 3.679688 -5.726562 3.738281 -5.765625 3.835938 -5.765625 C 3.878906 -5.765625 4.035156 -5.765625 4.316406 -5.765625 C 4.574219 -5.765625 4.890625 -5.785156 5.25 -5.785156 C 5.605469 -5.785156 6.003906 -5.804688 6.402344 -5.824219 C 6.800781 -5.824219 7.175781 -5.84375 7.535156 -5.84375 C 7.875 -5.84375 8.152344 -5.867188 8.390625 -5.867188 L 8.75 -5.886719 L 8.789062 -5.886719 C 8.789062 -5.867188 8.828125 -5.867188 8.886719 -5.867188 C 8.988281 -5.867188 9.085938 -5.886719 9.207031 -5.925781 C 9.324219 -5.964844 9.382812 -6.085938 9.382812 -6.261719 C 9.382812 -6.382812 9.382812 -6.542969 9.382812 -6.738281 C 9.382812 -6.9375 9.40625 -7.117188 9.425781 -7.296875 C 9.425781 -7.476562 9.445312 -7.636719 9.445312 -7.773438 L 9.464844 -7.992188 L 9.464844 -8.074219 C 9.464844 -8.132812 9.464844 -8.191406 9.445312 -8.25 C 9.425781 -8.3125 9.382812 -8.371094 9.34375 -8.429688 C 9.285156 -8.46875 9.207031 -8.507812 9.085938 -8.507812 C 9.027344 -8.507812 8.90625 -8.488281 8.726562 -8.488281 C 8.550781 -8.488281 8.332031 -8.46875 8.074219 -8.46875 C 7.8125 -8.449219 7.535156 -8.429688 7.238281 -8.429688 C 6.917969 -8.410156 6.621094 -8.390625 6.324219 -8.371094 C 5.585938 -8.332031 4.773438 -8.269531 3.898438 -8.230469 C 3.816406 -8.230469 3.738281 -8.230469 3.679688 -8.269531 C 3.617188 -8.289062 3.558594 -8.332031 3.519531 -8.371094 C 3.480469 -8.410156 3.460938 -8.488281 3.460938 -8.589844 C 3.460938 -8.667969 3.460938 -8.847656 3.480469 -9.105469 C 3.480469 -9.34375 3.5 -9.601562 3.519531 -9.882812 C 3.539062 -10.160156 3.558594 -10.398438 3.578125 -10.597656 C 3.578125 -10.796875 3.578125 -10.894531 3.578125 -10.894531 C 3.558594 -10.875 3.539062 -10.894531 3.539062 -10.957031 C 3.539062 -11.015625 3.539062 -11.074219 3.578125 -11.152344 C 3.597656 -11.234375 3.636719 -11.292969 3.71875 -11.371094 C 3.777344 -11.433594 3.878906 -11.472656 4.035156 -11.472656 Z M 4.035156 -11.472656 "/></g></g></g><g fill="#ffffff" fill-opacity="1"><g transform="translate(183.097901, 249.245638)"><g><path d="M 0.0976562 -12.84375 C 0.0976562 -12.726562 0.121094 -12.464844 0.160156 -12.046875 C 0.199219 -11.632812 0.257812 -11.113281 0.359375 -10.519531 C 0.4375 -9.902344 0.558594 -9.226562 0.714844 -8.488281 C 0.875 -7.734375 1.054688 -6.980469 1.273438 -6.222656 C 1.492188 -5.46875 1.75 -4.710938 2.027344 -3.996094 C 2.304688 -3.28125 2.644531 -2.625 3.023438 -2.066406 C 3.378906 -1.492188 3.796875 -1.035156 4.253906 -0.675781 C 4.691406 -0.316406 5.210938 -0.121094 5.765625 -0.078125 L 5.886719 -0.078125 C 6.441406 -0.121094 6.9375 -0.316406 7.394531 -0.675781 C 7.832031 -1.035156 8.25 -1.492188 8.628906 -2.066406 C 8.988281 -2.625 9.324219 -3.28125 9.601562 -3.996094 C 9.882812 -4.710938 10.140625 -5.46875 10.359375 -6.222656 C 10.578125 -6.980469 10.757812 -7.734375 10.914062 -8.488281 C 11.074219 -9.226562 11.195312 -9.902344 11.292969 -10.519531 C 11.371094 -11.113281 11.453125 -11.632812 11.492188 -12.046875 C 11.53125 -12.464844 11.550781 -12.726562 11.550781 -12.84375 C 11.550781 -13.0625 11.511719 -13.222656 11.472656 -13.339844 C 11.433594 -13.460938 11.371094 -13.539062 11.3125 -13.601562 C 11.234375 -13.640625 11.132812 -13.679688 11.054688 -13.679688 C 10.777344 -13.679688 10.496094 -13.699219 10.238281 -13.71875 C 10 -13.71875 9.78125 -13.738281 9.5625 -13.738281 C 9.324219 -13.738281 9.144531 -13.757812 9.007812 -13.757812 C 8.847656 -13.757812 8.75 -13.699219 8.667969 -13.621094 C 8.589844 -13.519531 8.53125 -13.421875 8.488281 -13.300781 C 8.449219 -13.183594 8.429688 -13.082031 8.429688 -12.984375 L 8.429688 -12.824219 C 8.429688 -12.804688 8.410156 -12.644531 8.390625 -12.367188 C 8.351562 -12.089844 8.3125 -11.710938 8.269531 -11.273438 C 8.210938 -10.816406 8.152344 -10.300781 8.074219 -9.742188 C 7.992188 -9.1875 7.914062 -8.628906 7.832031 -8.09375 C 7.753906 -7.535156 7.65625 -7.039062 7.574219 -6.5625 C 7.476562 -6.085938 7.375 -5.707031 7.277344 -5.429688 C 7.117188 -4.992188 6.980469 -4.632812 6.820312 -4.394531 C 6.660156 -4.136719 6.5 -3.9375 6.363281 -3.796875 C 6.222656 -3.660156 6.105469 -3.578125 6.003906 -3.539062 C 5.90625 -3.5 5.84375 -3.5 5.824219 -3.5 C 5.785156 -3.480469 5.726562 -3.5 5.625 -3.539062 C 5.527344 -3.578125 5.40625 -3.660156 5.269531 -3.796875 C 5.128906 -3.917969 4.992188 -4.117188 4.832031 -4.375 C 4.671875 -4.632812 4.511719 -4.992188 4.375 -5.429688 C 4.253906 -5.707031 4.15625 -6.085938 4.074219 -6.5625 C 3.976562 -7.039062 3.878906 -7.535156 3.796875 -8.09375 C 3.71875 -8.628906 3.636719 -9.1875 3.558594 -9.742188 C 3.480469 -10.300781 3.417969 -10.816406 3.378906 -11.273438 C 3.320312 -11.710938 3.28125 -12.089844 3.261719 -12.386719 L 3.222656 -12.824219 L 3.222656 -12.984375 C 3.222656 -13.082031 3.199219 -13.183594 3.160156 -13.300781 C 3.121094 -13.421875 3.0625 -13.519531 2.980469 -13.621094 C 2.902344 -13.699219 2.785156 -13.757812 2.644531 -13.757812 C 2.484375 -13.757812 2.304688 -13.738281 2.085938 -13.738281 C 1.847656 -13.738281 1.628906 -13.71875 1.410156 -13.71875 C 1.132812 -13.699219 0.875 -13.679688 0.597656 -13.679688 C 0.496094 -13.679688 0.417969 -13.640625 0.359375 -13.601562 C 0.277344 -13.539062 0.21875 -13.460938 0.179688 -13.339844 C 0.121094 -13.222656 0.0976562 -13.0625 0.0976562 -12.84375 Z M 0.0976562 -12.84375 "/></g></g></g><g fill="#ffffff" fill-opacity="1"><g transform="translate(198.582484, 249.245638)"><g><path d="M 4.035156 -11.472656 L 9.226562 -11.472656 C 9.246094 -11.453125 9.285156 -11.453125 9.324219 -11.453125 C 9.34375 -11.453125 9.382812 -11.433594 9.425781 -11.433594 C 9.464844 -11.433594 9.523438 -11.433594 9.5625 -11.433594 C 9.683594 -11.433594 9.78125 -11.453125 9.882812 -11.492188 C 9.980469 -11.53125 10.039062 -11.632812 10.039062 -11.789062 C 10.039062 -11.929688 10.039062 -12.089844 10.039062 -12.246094 C 10.039062 -12.40625 10.058594 -12.585938 10.082031 -12.746094 C 10.082031 -12.902344 10.082031 -13.082031 10.101562 -13.28125 C 10.082031 -13.382812 10.058594 -13.480469 10.019531 -13.578125 C 9.980469 -13.660156 9.941406 -13.71875 9.863281 -13.777344 C 9.78125 -13.839844 9.683594 -13.878906 9.5625 -13.878906 L 2.109375 -13.796875 C 1.910156 -13.796875 1.730469 -13.777344 1.550781 -13.757812 C 1.371094 -13.738281 1.210938 -13.699219 1.074219 -13.640625 C 0.933594 -13.558594 0.835938 -13.460938 0.753906 -13.320312 C 0.675781 -13.164062 0.636719 -12.984375 0.636719 -12.746094 C 0.636719 -12.527344 0.636719 -12.226562 0.636719 -11.832031 C 0.636719 -11.433594 0.65625 -11.015625 0.675781 -10.558594 C 0.675781 -10.082031 0.695312 -9.625 0.714844 -9.144531 C 0.714844 -8.667969 0.734375 -8.230469 0.753906 -7.832031 C 0.753906 -7.4375 0.777344 -7.097656 0.777344 -6.859375 L 0.796875 -6.480469 L 0.796875 -1.847656 C 0.796875 -1.589844 0.777344 -1.472656 0.777344 -1.472656 C 0.753906 -1.472656 0.734375 -1.390625 0.734375 -1.234375 C 0.734375 -1.074219 0.753906 -0.914062 0.796875 -0.734375 C 0.835938 -0.558594 0.914062 -0.398438 1.035156 -0.238281 C 1.152344 -0.078125 1.3125 -0.0195312 1.550781 -0.0195312 L 9.1875 -0.0195312 C 9.207031 0 9.246094 0 9.304688 0 C 9.382812 0 9.464844 -0.0195312 9.5625 -0.0585938 C 9.664062 -0.0976562 9.722656 -0.21875 9.722656 -0.417969 C 9.722656 -0.558594 9.722656 -0.695312 9.722656 -0.835938 C 9.722656 -0.972656 9.742188 -1.113281 9.761719 -1.234375 C 9.761719 -1.371094 9.78125 -1.511719 9.800781 -1.648438 C 9.820312 -1.769531 9.820312 -1.867188 9.820312 -1.96875 C 9.78125 -2.046875 9.742188 -2.109375 9.664062 -2.1875 C 9.582031 -2.246094 9.464844 -2.285156 9.285156 -2.285156 L 8.628906 -2.285156 C 8.3125 -2.285156 7.972656 -2.265625 7.574219 -2.265625 C 7.175781 -2.265625 6.761719 -2.246094 6.324219 -2.246094 C 5.886719 -2.246094 5.488281 -2.226562 5.128906 -2.226562 C 4.773438 -2.226562 4.472656 -2.226562 4.234375 -2.226562 L 3.835938 -2.226562 C 3.816406 -2.207031 3.777344 -2.207031 3.738281 -2.207031 C 3.679688 -2.207031 3.617188 -2.226562 3.578125 -2.265625 C 3.519531 -2.304688 3.5 -2.386719 3.5 -2.546875 L 3.519531 -5.1875 L 3.519531 -5.289062 C 3.519531 -5.347656 3.519531 -5.40625 3.539062 -5.488281 C 3.558594 -5.546875 3.597656 -5.605469 3.636719 -5.667969 C 3.679688 -5.726562 3.738281 -5.765625 3.835938 -5.765625 C 3.878906 -5.765625 4.035156 -5.765625 4.316406 -5.765625 C 4.574219 -5.765625 4.890625 -5.785156 5.25 -5.785156 C 5.605469 -5.785156 6.003906 -5.804688 6.402344 -5.824219 C 6.800781 -5.824219 7.175781 -5.84375 7.535156 -5.84375 C 7.875 -5.84375 8.152344 -5.867188 8.390625 -5.867188 L 8.75 -5.886719 L 8.789062 -5.886719 C 8.789062 -5.867188 8.828125 -5.867188 8.886719 -5.867188 C 8.988281 -5.867188 9.085938 -5.886719 9.207031 -5.925781 C 9.324219 -5.964844 9.382812 -6.085938 9.382812 -6.261719 C 9.382812 -6.382812 9.382812 -6.542969 9.382812 -6.738281 C 9.382812 -6.9375 9.40625 -7.117188 9.425781 -7.296875 C 9.425781 -7.476562 9.445312 -7.636719 9.445312 -7.773438 L 9.464844 -7.992188 L 9.464844 -8.074219 C 9.464844 -8.132812 9.464844 -8.191406 9.445312 -8.25 C 9.425781 -8.3125 9.382812 -8.371094 9.34375 -8.429688 C 9.285156 -8.46875 9.207031 -8.507812 9.085938 -8.507812 C 9.027344 -8.507812 8.90625 -8.488281 8.726562 -8.488281 C 8.550781 -8.488281 8.332031 -8.46875 8.074219 -8.46875 C 7.8125 -8.449219 7.535156 -8.429688 7.238281 -8.429688 C 6.917969 -8.410156 6.621094 -8.390625 6.324219 -8.371094 C 5.585938 -8.332031 4.773438 -8.269531 3.898438 -8.230469 C 3.816406 -8.230469 3.738281 -8.230469 3.679688 -8.269531 C 3.617188 -8.289062 3.558594 -8.332031 3.519531 -8.371094 C 3.480469 -8.410156 3.460938 -8.488281 3.460938 -8.589844 C 3.460938 -8.667969 3.460938 -8.847656 3.480469 -9.105469 C 3.480469 -9.34375 3.5 -9.601562 3.519531 -9.882812 C 3.539062 -10.160156 3.558594 -10.398438 3.578125 -10.597656 C 3.578125 -10.796875 3.578125 -10.894531 3.578125 -10.894531 C 3.558594 -10.875 3.539062 -10.894531 3.539062 -10.957031 C 3.539062 -11.015625 3.539062 -11.074219 3.578125 -11.152344 C 3.597656 -11.234375 3.636719 -11.292969 3.71875 -11.371094 C 3.777344 -11.433594 3.878906 -11.472656 4.035156 -11.472656 Z M 4.035156 -11.472656 "/></g></g></g><g fill="#ffffff" fill-opacity="1"><g transform="translate(212.636067, 249.245638)"><g><path d="M 1.152344 -0.0195312 L 7.65625 -0.0195312 C 7.753906 -0.0195312 7.832031 -0.0390625 7.875 -0.078125 C 7.914062 -0.121094 7.953125 -0.160156 7.992188 -0.199219 C 8.011719 -0.238281 8.011719 -0.296875 8.011719 -0.378906 L 8.011719 -2.1875 C 8.011719 -2.285156 7.933594 -2.347656 7.792969 -2.386719 C 7.636719 -2.40625 7.515625 -2.425781 7.4375 -2.425781 L 7.355469 -2.425781 L 3.878906 -2.367188 C 3.796875 -2.367188 3.738281 -2.40625 3.71875 -2.523438 C 3.699219 -2.625 3.699219 -2.683594 3.71875 -2.683594 L 3.71875 -3.121094 C 3.71875 -3.417969 3.738281 -3.816406 3.738281 -4.292969 C 3.738281 -4.773438 3.757812 -5.328125 3.757812 -5.964844 C 3.757812 -6.582031 3.757812 -7.21875 3.757812 -7.875 C 3.757812 -8.53125 3.777344 -9.1875 3.777344 -9.820312 C 3.777344 -10.457031 3.796875 -11.054688 3.796875 -11.570312 C 3.796875 -12.089844 3.816406 -12.507812 3.816406 -12.84375 L 3.816406 -13.460938 C 3.816406 -13.578125 3.796875 -13.679688 3.757812 -13.738281 C 3.71875 -13.777344 3.660156 -13.816406 3.617188 -13.859375 C 3.558594 -13.878906 3.5 -13.898438 3.417969 -13.898438 C 3.082031 -13.898438 2.761719 -13.917969 2.484375 -13.917969 C 2.226562 -13.917969 1.96875 -13.9375 1.730469 -13.9375 L 1.191406 -13.9375 C 1.074219 -13.9375 0.972656 -13.898438 0.933594 -13.859375 C 0.875 -13.796875 0.835938 -13.738281 0.816406 -13.660156 C 0.796875 -13.578125 0.796875 -13.519531 0.796875 -13.480469 L 0.816406 -13.402344 L 0.816406 -7.15625 C 0.816406 -6.363281 0.796875 -5.585938 0.796875 -4.832031 C 0.796875 -4.054688 0.796875 -3.359375 0.796875 -2.761719 L 0.796875 -0.535156 C 0.796875 -0.398438 0.816406 -0.296875 0.855469 -0.238281 C 0.894531 -0.160156 0.933594 -0.121094 0.972656 -0.078125 C 1.015625 -0.0390625 1.054688 -0.0195312 1.09375 -0.0195312 Z M 1.152344 -0.0195312 "/></g></g></g><g fill="#ffffff" fill-opacity="1"><g transform="translate(224.6624, 249.245638)"><g><path d="M 0.535156 -7.695312 C 0.457031 -6.621094 0.535156 -5.707031 0.753906 -4.910156 C 0.972656 -4.117188 1.273438 -3.417969 1.671875 -2.863281 C 2.066406 -2.285156 2.503906 -1.808594 3.023438 -1.429688 C 3.519531 -1.054688 4.015625 -0.753906 4.535156 -0.535156 C 5.03125 -0.316406 5.507812 -0.160156 5.964844 -0.078125 C 6.402344 0 6.78125 0.0390625 7.058594 0.0390625 C 7.335938 0.0390625 7.65625 0.0390625 8.050781 0 C 8.449219 -0.0390625 8.867188 -0.121094 9.304688 -0.238281 C 9.742188 -0.359375 10.179688 -0.558594 10.617188 -0.796875 C 11.054688 -1.035156 11.453125 -1.371094 11.808594 -1.789062 C 12.167969 -2.1875 12.484375 -2.703125 12.765625 -3.320312 C 13.023438 -3.9375 13.203125 -4.671875 13.28125 -5.546875 C 13.402344 -6.839844 13.339844 -7.953125 13.121094 -8.90625 C 12.902344 -9.863281 12.566406 -10.65625 12.109375 -11.3125 C 11.652344 -11.96875 11.113281 -12.484375 10.476562 -12.863281 C 9.84375 -13.242188 9.207031 -13.519531 8.53125 -13.679688 C 8.53125 -13.679688 8.429688 -13.699219 8.269531 -13.738281 C 8.113281 -13.757812 7.933594 -13.777344 7.734375 -13.796875 C 7.535156 -13.816406 7.335938 -13.839844 7.175781 -13.859375 C 7 -13.878906 6.898438 -13.898438 6.878906 -13.898438 L 6.761719 -13.898438 C 6.621094 -13.898438 6.382812 -13.878906 6.042969 -13.839844 C 5.6875 -13.796875 5.289062 -13.71875 4.851562 -13.601562 C 4.414062 -13.460938 3.9375 -13.261719 3.460938 -13.003906 C 2.980469 -12.726562 2.523438 -12.367188 2.128906 -11.910156 C 1.710938 -11.453125 1.351562 -10.875 1.074219 -10.199219 C 0.777344 -9.503906 0.597656 -8.667969 0.535156 -7.695312 Z M 3.179688 -7.515625 C 3.242188 -8.191406 3.378906 -8.769531 3.617188 -9.207031 C 3.835938 -9.644531 4.097656 -10 4.394531 -10.277344 C 4.691406 -10.558594 5.011719 -10.757812 5.328125 -10.875 C 5.648438 -10.996094 5.964844 -11.09375 6.242188 -11.132812 C 6.519531 -11.175781 6.761719 -11.195312 6.957031 -11.195312 C 7.15625 -11.195312 7.257812 -11.195312 7.296875 -11.214844 C 7.316406 -11.214844 7.355469 -11.234375 7.4375 -11.234375 C 7.554688 -11.234375 7.753906 -11.195312 7.992188 -11.132812 C 8.230469 -11.074219 8.488281 -10.976562 8.808594 -10.855469 C 8.988281 -10.777344 9.207031 -10.617188 9.445312 -10.417969 C 9.683594 -10.199219 9.921875 -9.902344 10.140625 -9.542969 C 10.339844 -9.164062 10.519531 -8.707031 10.636719 -8.191406 C 10.757812 -7.65625 10.777344 -7.039062 10.738281 -6.34375 C 10.675781 -5.625 10.519531 -5.03125 10.257812 -4.554688 C 9.980469 -4.074219 9.664062 -3.679688 9.304688 -3.398438 C 8.945312 -3.101562 8.550781 -2.882812 8.113281 -2.761719 C 7.675781 -2.644531 7.277344 -2.585938 6.878906 -2.585938 C 6.480469 -2.585938 6.042969 -2.644531 5.566406 -2.761719 C 5.089844 -2.882812 4.671875 -3.140625 4.273438 -3.5 C 3.878906 -3.855469 3.578125 -4.355469 3.359375 -4.992188 C 3.121094 -5.625 3.0625 -6.480469 3.179688 -7.515625 Z M 3.179688 -7.515625 "/></g></g></g><g fill="#ffffff" fill-opacity="1"><g transform="translate(242.05498, 249.245638)"><g><path d="M 5.625 -2.285156 L 4.851562 -2.304688 C 4.8125 -2.304688 4.773438 -2.304688 4.773438 -2.328125 C 4.691406 -2.347656 4.671875 -2.386719 4.671875 -2.445312 L 4.652344 -4.195312 C 4.652344 -4.175781 4.871094 -4.136719 5.269531 -4.074219 C 5.667969 -3.996094 6.164062 -3.976562 6.761719 -3.976562 C 7.296875 -3.976562 7.855469 -4.015625 8.449219 -4.136719 C 9.046875 -4.253906 9.601562 -4.433594 10.140625 -4.691406 C 10.65625 -4.929688 11.132812 -5.25 11.550781 -5.648438 C 11.949219 -6.042969 12.246094 -6.519531 12.445312 -7.097656 C 12.527344 -7.335938 12.585938 -7.675781 12.625 -8.074219 C 12.664062 -8.46875 12.703125 -8.886719 12.703125 -9.324219 C 12.703125 -9.742188 12.683594 -10.140625 12.644531 -10.539062 C 12.605469 -10.933594 12.546875 -11.234375 12.484375 -11.472656 C 12.308594 -11.988281 12.046875 -12.425781 11.691406 -12.765625 C 11.332031 -13.082031 10.914062 -13.339844 10.457031 -13.539062 C 10 -13.71875 9.523438 -13.839844 9.007812 -13.917969 C 8.488281 -13.976562 7.992188 -14.015625 7.515625 -14.015625 C 6.402344 -14.015625 5.449219 -13.996094 4.652344 -13.976562 C 3.855469 -13.957031 3.222656 -13.9375 2.722656 -13.898438 C 2.207031 -13.859375 1.828125 -13.839844 1.570312 -13.816406 C 1.292969 -13.796875 1.132812 -13.796875 1.054688 -13.796875 L 0.992188 -13.796875 C 0.972656 -13.796875 0.953125 -13.816406 0.914062 -13.816406 C 0.835938 -13.816406 0.777344 -13.777344 0.695312 -13.71875 C 0.617188 -13.660156 0.597656 -13.539062 0.597656 -13.359375 L 0.597656 -12.902344 C 0.597656 -12.703125 0.578125 -12.527344 0.578125 -12.367188 C 0.578125 -12.1875 0.578125 -12.027344 0.578125 -11.910156 L 0.578125 -11.730469 L 0.558594 -11.652344 C 0.558594 -11.613281 0.558594 -11.550781 0.558594 -11.511719 C 0.558594 -11.453125 0.558594 -11.394531 0.597656 -11.351562 C 0.636719 -11.3125 0.695312 -11.292969 0.777344 -11.292969 C 0.855469 -11.292969 0.933594 -11.292969 1.035156 -11.292969 C 1.132812 -11.292969 1.234375 -11.3125 1.3125 -11.3125 C 1.390625 -11.3125 1.492188 -11.3125 1.609375 -11.332031 C 1.648438 -11.332031 1.710938 -11.3125 1.769531 -11.3125 C 1.867188 -11.273438 1.929688 -11.195312 1.929688 -11.054688 L 1.988281 -3.042969 C 1.988281 -2.921875 1.96875 -2.84375 1.96875 -2.761719 C 1.949219 -2.683594 1.929688 -2.625 1.910156 -2.566406 C 1.890625 -2.503906 1.847656 -2.484375 1.808594 -2.484375 L 1.132812 -2.464844 C 1.113281 -2.464844 1.113281 -2.464844 1.113281 -2.484375 L 1.035156 -2.484375 C 0.992188 -2.484375 0.953125 -2.464844 0.914062 -2.425781 C 0.875 -2.386719 0.855469 -2.328125 0.855469 -2.207031 L 0.835938 -0.398438 C 0.816406 -0.316406 0.816406 -0.238281 0.835938 -0.199219 C 0.855469 -0.0585938 0.914062 0 1.015625 0 L 5.46875 0 C 5.527344 0 5.585938 0 5.648438 -0.0390625 C 5.765625 -0.078125 5.824219 -0.160156 5.824219 -0.277344 L 5.84375 -2.109375 C 5.84375 -2.148438 5.824219 -2.167969 5.804688 -2.207031 C 5.765625 -2.246094 5.707031 -2.285156 5.625 -2.285156 Z M 5.050781 -11.414062 C 5.050781 -11.414062 5.070312 -11.394531 5.089844 -11.394531 L 5.289062 -11.414062 C 5.40625 -11.433594 5.585938 -11.453125 5.785156 -11.492188 C 5.984375 -11.53125 6.203125 -11.550781 6.441406 -11.589844 C 6.679688 -11.613281 6.898438 -11.632812 7.136719 -11.632812 C 7.355469 -11.632812 7.613281 -11.589844 7.914062 -11.511719 C 8.210938 -11.433594 8.488281 -11.273438 8.769531 -11.054688 C 9.027344 -10.816406 9.246094 -10.496094 9.445312 -10.082031 C 9.625 -9.644531 9.722656 -9.085938 9.722656 -8.410156 C 9.722656 -7.972656 9.625 -7.613281 9.425781 -7.355469 C 9.226562 -7.078125 8.96875 -6.878906 8.667969 -6.71875 C 8.351562 -6.5625 8.011719 -6.460938 7.65625 -6.421875 C 7.277344 -6.363281 6.917969 -6.34375 6.582031 -6.34375 C 6.164062 -6.34375 5.804688 -6.363281 5.507812 -6.402344 C 5.210938 -6.441406 5.03125 -6.460938 4.992188 -6.460938 C 4.949219 -6.460938 4.910156 -6.542969 4.890625 -6.71875 C 4.871094 -6.878906 4.851562 -7.097656 4.851562 -7.375 C 4.851562 -7.65625 4.832031 -7.953125 4.832031 -8.289062 C 4.832031 -8.628906 4.832031 -8.96875 4.832031 -9.285156 L 4.832031 -10.835938 C 4.832031 -11.074219 4.851562 -11.234375 4.910156 -11.3125 C 4.949219 -11.371094 5.011719 -11.414062 5.050781 -11.414062 Z M 5.050781 -11.414062 "/></g></g></g><g fill="#ffffff" fill-opacity="1"><g transform="translate(258.871191, 249.245638)"><g><path d="M 4.035156 -11.472656 L 9.226562 -11.472656 C 9.246094 -11.453125 9.285156 -11.453125 9.324219 -11.453125 C 9.34375 -11.453125 9.382812 -11.433594 9.425781 -11.433594 C 9.464844 -11.433594 9.523438 -11.433594 9.5625 -11.433594 C 9.683594 -11.433594 9.78125 -11.453125 9.882812 -11.492188 C 9.980469 -11.53125 10.039062 -11.632812 10.039062 -11.789062 C 10.039062 -11.929688 10.039062 -12.089844 10.039062 -12.246094 C 10.039062 -12.40625 10.058594 -12.585938 10.082031 -12.746094 C 10.082031 -12.902344 10.082031 -13.082031 10.101562 -13.28125 C 10.082031 -13.382812 10.058594 -13.480469 10.019531 -13.578125 C 9.980469 -13.660156 9.941406 -13.71875 9.863281 -13.777344 C 9.78125 -13.839844 9.683594 -13.878906 9.5625 -13.878906 L 2.109375 -13.796875 C 1.910156 -13.796875 1.730469 -13.777344 1.550781 -13.757812 C 1.371094 -13.738281 1.210938 -13.699219 1.074219 -13.640625 C 0.933594 -13.558594 0.835938 -13.460938 0.753906 -13.320312 C 0.675781 -13.164062 0.636719 -12.984375 0.636719 -12.746094 C 0.636719 -12.527344 0.636719 -12.226562 0.636719 -11.832031 C 0.636719 -11.433594 0.65625 -11.015625 0.675781 -10.558594 C 0.675781 -10.082031 0.695312 -9.625 0.714844 -9.144531 C 0.714844 -8.667969 0.734375 -8.230469 0.753906 -7.832031 C 0.753906 -7.4375 0.777344 -7.097656 0.777344 -6.859375 L 0.796875 -6.480469 L 0.796875 -1.847656 C 0.796875 -1.589844 0.777344 -1.472656 0.777344 -1.472656 C 0.753906 -1.472656 0.734375 -1.390625 0.734375 -1.234375 C 0.734375 -1.074219 0.753906 -0.914062 0.796875 -0.734375 C 0.835938 -0.558594 0.914062 -0.398438 1.035156 -0.238281 C 1.152344 -0.078125 1.3125 -0.0195312 1.550781 -0.0195312 L 9.1875 -0.0195312 C 9.207031 0 9.246094 0 9.304688 0 C 9.382812 0 9.464844 -0.0195312 9.5625 -0.0585938 C 9.664062 -0.0976562 9.722656 -0.21875 9.722656 -0.417969 C 9.722656 -0.558594 9.722656 -0.695312 9.722656 -0.835938 C 9.722656 -0.972656 9.742188 -1.113281 9.761719 -1.234375 C 9.761719 -1.371094 9.78125 -1.511719 9.800781 -1.648438 C 9.820312 -1.769531 9.820312 -1.867188 9.820312 -1.96875 C 9.78125 -2.046875 9.742188 -2.109375 9.664062 -2.1875 C 9.582031 -2.246094 9.464844 -2.285156 9.285156 -2.285156 L 8.628906 -2.285156 C 8.3125 -2.285156 7.972656 -2.265625 7.574219 -2.265625 C 7.175781 -2.265625 6.761719 -2.246094 6.324219 -2.246094 C 5.886719 -2.246094 5.488281 -2.226562 5.128906 -2.226562 C 4.773438 -2.226562 4.472656 -2.226562 4.234375 -2.226562 L 3.835938 -2.226562 C 3.816406 -2.207031 3.777344 -2.207031 3.738281 -2.207031 C 3.679688 -2.207031 3.617188 -2.226562 3.578125 -2.265625 C 3.519531 -2.304688 3.5 -2.386719 3.5 -2.546875 L 3.519531 -5.1875 L 3.519531 -5.289062 C 3.519531 -5.347656 3.519531 -5.40625 3.539062 -5.488281 C 3.558594 -5.546875 3.597656 -5.605469 3.636719 -5.667969 C 3.679688 -5.726562 3.738281 -5.765625 3.835938 -5.765625 C 3.878906 -5.765625 4.035156 -5.765625 4.316406 -5.765625 C 4.574219 -5.765625 4.890625 -5.785156 5.25 -5.785156 C 5.605469 -5.785156 6.003906 -5.804688 6.402344 -5.824219 C 6.800781 -5.824219 7.175781 -5.84375 7.535156 -5.84375 C 7.875 -5.84375 8.152344 -5.867188 8.390625 -5.867188 L 8.75 -5.886719 L 8.789062 -5.886719 C 8.789062 -5.867188 8.828125 -5.867188 8.886719 -5.867188 C 8.988281 -5.867188 9.085938 -5.886719 9.207031 -5.925781 C 9.324219 -5.964844 9.382812 -6.085938 9.382812 -6.261719 C 9.382812 -6.382812 9.382812 -6.542969 9.382812 -6.738281 C 9.382812 -6.9375 9.40625 -7.117188 9.425781 -7.296875 C 9.425781 -7.476562 9.445312 -7.636719 9.445312 -7.773438 L 9.464844 -7.992188 L 9.464844 -8.074219 C 9.464844 -8.132812 9.464844 -8.191406 9.445312 -8.25 C 9.425781 -8.3125 9.382812 -8.371094 9.34375 -8.429688 C 9.285156 -8.46875 9.207031 -8.507812 9.085938 -8.507812 C 9.027344 -8.507812 8.90625 -8.488281 8.726562 -8.488281 C 8.550781 -8.488281 8.332031 -8.46875 8.074219 -8.46875 C 7.8125 -8.449219 7.535156 -8.429688 7.238281 -8.429688 C 6.917969 -8.410156 6.621094 -8.390625 6.324219 -8.371094 C 5.585938 -8.332031 4.773438 -8.269531 3.898438 -8.230469 C 3.816406 -8.230469 3.738281 -8.230469 3.679688 -8.269531 C 3.617188 -8.289062 3.558594 -8.332031 3.519531 -8.371094 C 3.480469 -8.410156 3.460938 -8.488281 3.460938 -8.589844 C 3.460938 -8.667969 3.460938 -8.847656 3.480469 -9.105469 C 3.480469 -9.34375 3.5 -9.601562 3.519531 -9.882812 C 3.539062 -10.160156 3.558594 -10.398438 3.578125 -10.597656 C 3.578125 -10.796875 3.578125 -10.894531 3.578125 -10.894531 C 3.558594 -10.875 3.539062 -10.894531 3.539062 -10.957031 C 3.539062 -11.015625 3.539062 -11.074219 3.578125 -11.152344 C 3.597656 -11.234375 3.636719 -11.292969 3.71875 -11.371094 C 3.777344 -11.433594 3.878906 -11.472656 4.035156 -11.472656 Z M 4.035156 -11.472656 "/></g></g></g><g fill="#ffffff" fill-opacity="1"><g transform="translate(272.924775, 249.245638)"><g><path d="M 7.574219 0 L 11.371094 0.0195312 C 11.453125 0.0195312 11.53125 0.0195312 11.613281 0 C 11.652344 -0.0195312 11.710938 -0.0390625 11.75 -0.078125 C 11.789062 -0.121094 11.832031 -0.160156 11.832031 -0.238281 L 11.832031 -1.808594 C 11.832031 -1.890625 11.808594 -1.949219 11.808594 -2.007812 C 11.769531 -2.128906 11.710938 -2.207031 11.632812 -2.207031 L 10.796875 -2.207031 C 10.757812 -2.207031 10.738281 -2.207031 10.714844 -2.226562 C 10.675781 -2.226562 10.636719 -2.285156 10.578125 -2.386719 L 9.144531 -5.128906 C 9.5625 -5.347656 9.941406 -5.667969 10.277344 -6.105469 C 10.558594 -6.441406 10.796875 -6.917969 11.035156 -7.515625 C 11.273438 -8.113281 11.394531 -8.847656 11.394531 -9.761719 C 11.394531 -10.558594 11.234375 -11.214844 10.957031 -11.75 C 10.675781 -12.265625 10.300781 -12.703125 9.820312 -13.023438 C 9.34375 -13.339844 8.808594 -13.578125 8.191406 -13.71875 C 7.574219 -13.859375 6.9375 -13.9375 6.28125 -13.9375 C 5.90625 -13.9375 5.527344 -13.917969 5.148438 -13.878906 L 1.96875 -13.660156 C 1.949219 -13.660156 1.867188 -13.640625 1.730469 -13.640625 C 1.589844 -13.621094 1.429688 -13.601562 1.273438 -13.578125 C 1.074219 -13.539062 0.875 -13.519531 0.636719 -13.5 C 0.597656 -13.5 0.558594 -13.480469 0.558594 -13.460938 C 0.476562 -13.421875 0.457031 -13.320312 0.457031 -13.203125 C 0.457031 -13.121094 0.457031 -12.964844 0.457031 -12.765625 C 0.457031 -12.546875 0.476562 -12.328125 0.476562 -12.109375 L 0.476562 -11.234375 C 0.457031 -11.234375 0.457031 -11.195312 0.457031 -11.113281 C 0.457031 -11.035156 0.535156 -11.015625 0.675781 -11.015625 C 0.734375 -11.015625 0.816406 -11.015625 0.894531 -11.015625 C 0.972656 -11.015625 1.054688 -11.035156 1.132812 -11.054688 C 1.210938 -11.054688 1.292969 -11.074219 1.390625 -11.09375 C 1.390625 -11.09375 1.410156 -11.09375 1.410156 -11.113281 L 1.492188 -11.113281 C 1.570312 -11.113281 1.628906 -11.054688 1.648438 -10.957031 C 1.648438 -10.914062 1.648438 -10.777344 1.648438 -10.519531 C 1.648438 -10.238281 1.671875 -9.902344 1.671875 -9.503906 C 1.671875 -9.085938 1.648438 -8.628906 1.648438 -8.113281 C 1.648438 -7.59375 1.648438 -7.058594 1.648438 -6.519531 L 1.648438 -2.265625 C 1.648438 -2.226562 1.628906 -2.207031 1.628906 -2.1875 C 1.589844 -2.128906 1.570312 -2.109375 1.550781 -2.109375 L 1.171875 -2.085938 C 1.113281 -2.085938 1.074219 -2.066406 1.035156 -2.066406 C 0.992188 -2.027344 0.953125 -2.007812 0.914062 -1.96875 C 0.875 -1.929688 0.875 -1.847656 0.875 -1.75 C 0.875 -1.648438 0.875 -1.53125 0.875 -1.371094 C 0.875 -1.210938 0.894531 -1.054688 0.914062 -0.894531 C 0.914062 -0.695312 0.933594 -0.515625 0.953125 -0.316406 C 0.953125 -0.257812 0.953125 -0.199219 0.992188 -0.160156 C 1.035156 -0.0390625 1.132812 0 1.253906 0 L 4.652344 0 C 4.730469 0 4.8125 0 4.890625 -0.0195312 C 4.96875 -0.0390625 5.03125 -0.0976562 5.03125 -0.21875 C 5.03125 -0.277344 5.011719 -0.398438 5.011719 -0.597656 C 5.011719 -0.777344 5.011719 -0.953125 5.011719 -1.152344 C 4.992188 -1.390625 4.96875 -1.628906 4.96875 -1.910156 C 4.96875 -1.949219 4.949219 -2.007812 4.949219 -2.046875 C 4.910156 -2.128906 4.851562 -2.1875 4.773438 -2.1875 L 4.453125 -2.1875 C 4.414062 -2.167969 4.355469 -2.167969 4.316406 -2.167969 C 4.292969 -2.167969 4.273438 -2.167969 4.273438 -2.1875 C 4.234375 -2.207031 4.214844 -2.246094 4.214844 -2.304688 L 4.136719 -4.375 C 4.136719 -4.375 4.136719 -4.433594 4.136719 -4.554688 C 4.136719 -4.652344 4.195312 -4.710938 4.273438 -4.710938 L 6.621094 -4.710938 C 6.660156 -4.691406 6.699219 -4.671875 6.738281 -4.652344 C 6.78125 -4.632812 6.800781 -4.613281 6.820312 -4.574219 C 6.820312 -4.535156 6.878906 -4.394531 6.980469 -4.175781 C 7.058594 -3.9375 7.15625 -3.699219 7.277344 -3.441406 C 7.394531 -3.179688 7.496094 -2.941406 7.574219 -2.742188 L 7.714844 -2.425781 C 7.714844 -2.40625 7.714844 -2.367188 7.734375 -2.285156 C 7.753906 -2.207031 7.734375 -2.1875 7.675781 -2.1875 L 7.316406 -2.1875 C 7.277344 -2.167969 7.238281 -2.128906 7.238281 -2.046875 L 7.238281 -1.710938 C 7.238281 -1.511719 7.238281 -1.332031 7.257812 -1.132812 C 7.257812 -0.894531 7.277344 -0.636719 7.296875 -0.359375 C 7.296875 -0.277344 7.296875 -0.21875 7.335938 -0.179688 C 7.355469 -0.140625 7.375 -0.0976562 7.417969 -0.0585938 C 7.457031 -0.0195312 7.496094 0 7.574219 0 Z M 3.9375 -11.652344 C 3.9375 -11.632812 4.054688 -11.632812 4.292969 -11.671875 C 4.535156 -11.691406 4.773438 -11.710938 5.03125 -11.710938 C 5.1875 -11.710938 5.308594 -11.691406 5.386719 -11.691406 L 5.507812 -11.691406 C 5.964844 -11.691406 6.421875 -11.671875 6.859375 -11.632812 C 7.296875 -11.589844 7.675781 -11.472656 8.011719 -11.3125 C 8.351562 -11.132812 8.628906 -10.875 8.828125 -10.539062 C 9.027344 -10.199219 9.144531 -9.742188 9.144531 -9.144531 C 9.144531 -8.667969 9.027344 -8.289062 8.828125 -8.011719 C 8.609375 -7.734375 8.332031 -7.515625 8.011719 -7.355469 C 7.675781 -7.199219 7.316406 -7.078125 6.917969 -7.019531 C 6.519531 -6.957031 6.125 -6.9375 5.765625 -6.9375 C 5.527344 -6.9375 5.289062 -6.9375 5.089844 -6.957031 C 4.871094 -6.957031 4.691406 -6.980469 4.554688 -7.019531 C 4.355469 -7.019531 4.195312 -7.039062 4.035156 -7.078125 L 4.035156 -7.417969 C 4.035156 -7.636719 4.015625 -7.914062 4.015625 -8.25 C 4.015625 -8.589844 3.996094 -8.945312 3.996094 -9.34375 C 3.976562 -9.742188 3.957031 -10.101562 3.957031 -10.4375 C 3.957031 -10.777344 3.9375 -11.054688 3.9375 -11.292969 Z M 3.9375 -11.652344 "/></g></g></g><g fill="#ffffff" fill-opacity="1"><g transform="translate(109.754697, 220.542804)"><g><path d="M 45.539062 -32.28125 L 45.539062 -16.207031 L 26.117188 -16.207031 L 26.117188 -77.550781 L 45.539062 -77.550781 L 45.539062 -58.265625 L 64.960938 -61.480469 L 64.960938 -82.507812 C 64.960938 -83.980469 64.558594 -85.457031 64.023438 -86.792969 C 63.488281 -88.132812 62.683594 -89.339844 61.613281 -90.410156 C 60.542969 -91.484375 59.335938 -92.285156 57.996094 -92.820312 C 56.65625 -93.359375 55.183594 -93.757812 53.578125 -93.757812 L 18.082031 -93.757812 C 16.476562 -93.757812 14.867188 -93.359375 13.527344 -92.820312 C 12.1875 -92.285156 10.984375 -91.484375 9.910156 -90.410156 C 8.839844 -89.339844 8.035156 -88.132812 7.5 -86.792969 C 6.964844 -85.457031 6.695312 -83.980469 6.695312 -82.507812 L 6.695312 -11.386719 C 6.695312 -8.171875 7.769531 -5.492188 10.046875 -3.347656 C 12.1875 -1.070312 14.867188 0 18.082031 0 L 53.578125 0 C 56.65625 0 59.335938 -1.070312 61.613281 -3.347656 C 63.757812 -5.492188 64.960938 -8.171875 64.960938 -11.386719 L 64.960938 -32.28125 Z M 45.539062 -32.28125 "/></g></g></g><g clip-path="url(#b13e1f0271)"><g clip-path="url(#81754d8724)"><path fill="#000000" d="M 170.789062 149.09375 L 215.191406 149.09375 L 215.191406 193.496094 L 170.789062 193.496094 Z M 170.789062 149.09375 " fill-opacity="1" fill-rule="nonzero"/></g></g><g clip-path="url(#38dfc4199b)"><g clip-path="url(#a00b4a413f)"><path fill="#ffffff" d="M 179.550781 157.851562 L 206.433594 157.851562 L 206.433594 184.734375 L 179.550781 184.734375 Z M 179.550781 157.851562 " fill-opacity="1" fill-rule="nonzero"/></g></g></svg>